<svg width="33" height="20" viewBox="0 0 33 20" fill="none" xmlns="http://www.w3.org/2000/svg"><path d="M10.4824 14.1992C9.7168 14.1992 9.05469 14.0195 8.49609 13.6602C7.9375 13.3008 7.50586 12.791 7.20117 12.1309C6.90039 11.4707 6.75 10.6875 6.75 9.78125V9.76953C6.75 8.85938 6.90039 8.07422 7.20117 7.41406C7.50586 6.75391 7.93555 6.24414 8.49023 5.88477C9.04883 5.52539 9.71094 5.3457 10.4766 5.3457C11.0703 5.3457 11.6094 5.46289 12.0938 5.69727C12.582 5.92773 12.9844 6.25 13.3008 6.66406C13.6172 7.07422 13.8164 7.54883 13.8984 8.08789L13.8926 8.09961H12.832L12.8262 8.08789C12.7324 7.72461 12.5742 7.41211 12.3516 7.15039C12.1289 6.88477 11.8574 6.67969 11.5371 6.53516C11.2207 6.39062 10.8672 6.31836 10.4766 6.31836C9.9375 6.31836 9.46875 6.45898 9.07031 6.74023C8.67578 7.02148 8.37109 7.41992 8.15625 7.93555C7.94141 8.45117 7.83398 9.0625 7.83398 9.76953V9.78125C7.83398 10.4844 7.94141 11.0938 8.15625 11.6094C8.37109 12.125 8.67578 12.5234 9.07031 12.8047C9.46875 13.0859 9.93945 13.2266 10.4824 13.2266C10.877 13.2266 11.2344 13.1641 11.5547 13.0391C11.875 12.9102 12.1445 12.7285 12.3633 12.4941C12.582 12.2559 12.7344 11.9746 12.8203 11.6504L12.832 11.6387H13.8984V11.6504C13.8047 12.166 13.6016 12.6152 13.2891 12.998C12.9766 13.377 12.5801 13.6719 12.0996 13.8828C11.623 14.0938 11.084 14.1992 10.4824 14.1992ZM17.7832 14.0469C17.1348 14.0469 16.6641 13.916 16.3711 13.6543C16.082 13.3926 15.9375 12.9609 15.9375 12.3594V8.52734H14.9414V7.68359H15.9375V6.04883H16.9922V7.68359H18.375V8.52734H16.9922V12.1016C16.9922 12.4727 17.0625 12.7402 17.2031 12.9043C17.3438 13.0645 17.5781 13.1445 17.9062 13.1445C17.9961 13.1445 18.0723 13.1426 18.1348 13.1387C18.2012 13.1348 18.2812 13.1289 18.375 13.1211V13.9883C18.2773 14.0039 18.1797 14.0176 18.082 14.0293C17.9844 14.041 17.8848 14.0469 17.7832 14.0469ZM19.8984 14V7.68359H20.918V8.62109H21.0117C21.1328 8.28906 21.3379 8.03125 21.627 7.84766C21.916 7.66406 22.2734 7.57227 22.6992 7.57227C22.7969 7.57227 22.8926 7.57812 22.9863 7.58984C23.084 7.59766 23.1582 7.60547 23.209 7.61328V8.60352C23.1035 8.58398 23 8.57031 22.8984 8.5625C22.8008 8.55078 22.6953 8.54492 22.582 8.54492C22.2578 8.54492 21.9707 8.60938 21.7207 8.73828C21.4707 8.86719 21.2734 9.04688 21.1289 9.27734C20.9883 9.50781 20.918 9.77734 20.918 10.0859V14H19.8984ZM24.5273 14V5.17578H25.5469V14H24.5273Z" fill="currentColor"></path></svg>