<svg width="147" height="30" viewBox="0 0 147 30" fill="none" xmlns="http://www.w3.org/2000/svg" class="brandingSvg-0-2-266"><rect width="147" height="30" rx="4" style="fill: rgb(208, 210, 211);stroke-width: 1;stroke: rgba(0, 0, 0, 0.15);"></rect><path fill-rule="evenodd" clip-rule="evenodd" d="M40.6279 18.1166L41.661 16.8845C42.5964 17.6963 43.5314 18.1584 44.746 18.1584C45.807 18.1584 46.4773 17.6682 46.4773 16.9261V16.8981C46.4773 16.1986 46.0862 15.8199 44.2713 15.4004C42.1913 14.8965 41.0187 14.2805 41.0187 12.474V12.4459C41.0187 10.766 42.4148 9.60364 44.3553 9.60364C45.779 9.60364 46.91 10.0376 47.9011 10.8359L46.9796 12.1378C46.1001 11.48 45.2208 11.1302 44.3273 11.1302C43.3222 11.1302 42.736 11.6477 42.736 12.2918V12.3199C42.736 13.0764 43.1827 13.4124 45.0532 13.8601C47.1192 14.3639 48.1942 15.106 48.1942 16.7304V16.7585C48.1942 18.5924 46.7564 19.6849 44.7044 19.6849C43.2106 19.6849 41.8005 19.1667 40.6279 18.1166Z" fill="#333E48"></path><path fill-rule="evenodd" clip-rule="evenodd" d="M49.3213 16.8564V12.1522H51.0106V16.3526C51.0106 17.5006 51.5829 18.1584 52.5879 18.1584C53.5653 18.1584 54.2492 17.4724 54.2492 16.3245V12.1522H55.9385V19.5446H54.2492V18.7824C53.6556 19.3546 53.0906 19.6986 51.946 19.6986C50.2847 19.6986 49.3213 18.5787 49.3213 16.8564Z" fill="#333E48"></path><path fill-rule="evenodd" clip-rule="evenodd" d="M57.7441 12.1523H59.4335V13.3845C59.8938 12.2783 60.7456 11.9558 62.0438 12.0119V13.5142H61.9462C60.4664 13.5142 59.4335 14.5062 59.4335 16.7305V19.5447H57.7441V12.1523Z" fill="#333E48"></path><path fill-rule="evenodd" clip-rule="evenodd" d="M62.6475 12.1522H64.462L66.4444 17.2962L68.4409 12.1522H70.2137L67.1983 19.6007H65.6765L62.6475 12.1522Z" fill="#333E48"></path><path fill-rule="evenodd" clip-rule="evenodd" d="M75.6838 15.3306C75.5722 14.2381 74.9299 13.3845 73.8133 13.3845C72.7799 13.3845 72.0541 14.1819 71.9005 15.3306H75.6838ZM70.2256 15.8762V15.8482C70.2256 13.7343 71.7193 11.9983 73.8269 11.9983C76.1726 11.9983 77.3591 13.8466 77.3591 15.9741C77.3591 16.1281 77.3452 16.2821 77.3312 16.4506H71.9145C72.096 17.6547 72.9475 18.3269 74.0365 18.3269C74.86 18.3269 75.4466 18.0188 76.0329 17.4445L77.024 18.3269C76.3261 19.1668 75.3627 19.7124 74.0085 19.7124C71.8729 19.7124 70.2256 18.1585 70.2256 15.8762Z" fill="#333E48"></path><path fill-rule="evenodd" clip-rule="evenodd" d="M86.3115 9.74402H88.14L91.1135 14.7436L94.087 9.74402H95.9159V19.5446H94.199V12.5164L91.1135 17.5016H91.0579L88.0005 12.5438V19.5446H86.3115V9.74402Z" fill="#333E48"></path><path fill-rule="evenodd" clip-rule="evenodd" d="M103.296 15.8906V15.8625C103.296 14.5605 102.361 13.4824 101.035 13.4824C99.6804 13.4824 98.8149 14.5461 98.8149 15.8344V15.8625C98.8149 17.1508 99.7503 18.2426 101.063 18.2426C102.431 18.2426 103.296 17.1645 103.296 15.8906ZM97.126 15.8906V15.8625C97.126 13.7479 98.8009 11.9983 101.063 11.9983C103.324 11.9983 104.985 13.7205 104.985 15.8344V15.8625C104.985 17.9627 103.31 19.7123 101.035 19.7123C98.7869 19.7123 97.126 17.9907 97.126 15.8906Z" fill="#333E48"></path><path fill-rule="evenodd" clip-rule="evenodd" d="M114.434 9.32373H116.123V15.4285L119.18 12.1523H121.232L118.301 15.1622L121.33 19.5446H119.376L117.156 16.3526L116.123 17.4308V19.5446H114.434V9.32373Z" fill="#333E48"></path><path fill-rule="evenodd" clip-rule="evenodd" d="M126.652 15.3306C126.54 14.2381 125.898 13.3845 124.781 13.3845C123.748 13.3845 123.023 14.1819 122.869 15.3306H126.652ZM121.193 15.8762V15.8482C121.193 13.7343 122.687 11.9983 124.795 11.9983C127.14 11.9983 128.327 13.8466 128.327 15.9741C128.327 16.1281 128.313 16.2821 128.299 16.4506H122.883C123.064 17.6547 123.916 18.3269 125.005 18.3269C125.828 18.3269 126.415 18.0188 127.001 17.4445L127.992 18.3269C127.294 19.1668 126.331 19.7124 124.977 19.7124C122.841 19.7124 121.193 18.1585 121.193 15.8762Z" fill="#333E48"></path><path fill-rule="evenodd" clip-rule="evenodd" d="M83.2922 12.1522L81.2526 17.1932L79.2257 12.1522H77.4668L80.3705 19.3735L78.8546 23.1199H80.6136L85.0511 12.1522H83.2922Z" fill="#333E48"></path><path fill-rule="evenodd" clip-rule="evenodd" d="M137.897 12.0886C138.099 12.0886 138.298 12.1422 138.49 12.2471C138.685 12.3498 138.838 12.501 138.945 12.6959C139.054 12.8893 139.109 13.0917 139.109 13.3055C139.109 13.514 139.054 13.7152 138.947 13.9081C138.839 14.1014 138.69 14.2507 138.498 14.3591C138.308 14.4649 138.107 14.5185 137.897 14.5185C137.689 14.5185 137.486 14.4649 137.293 14.3591C137.099 14.2507 136.951 14.1014 136.843 13.9081C136.737 13.7152 136.684 13.514 136.684 13.3055C136.684 13.0917 136.737 12.8893 136.847 12.6959C136.957 12.501 137.106 12.3498 137.3 12.2471C137.494 12.1422 137.692 12.0886 137.897 12.0886ZM137.897 12.2897C137.726 12.2897 137.56 12.3337 137.4 12.4203C137.237 12.5087 137.111 12.6337 137.019 12.7952C136.931 12.9593 136.885 13.1296 136.885 13.3055C136.885 13.4788 136.928 13.6473 137.018 13.8088C137.109 13.9681 137.232 14.0944 137.395 14.1833C137.554 14.2725 137.723 14.3173 137.897 14.3173C138.072 14.3173 138.239 14.2725 138.399 14.1833C138.56 14.0944 138.684 13.9681 138.773 13.8088C138.861 13.6473 138.906 13.4788 138.906 13.3055C138.906 13.1296 138.861 12.9593 138.77 12.7952C138.681 12.6337 138.556 12.5087 138.392 12.4203C138.231 12.3337 138.064 12.2897 137.897 12.2897Z" fill="#333E48"></path><path fill-rule="evenodd" clip-rule="evenodd" d="M137.971 13.2977C138.141 13.2977 138.25 13.2082 138.25 13.0701V13.0662C138.25 12.9203 138.145 12.8405 137.969 12.8405H137.621V13.2977H137.971ZM137.383 12.6226H137.988C138.159 12.6226 138.293 12.6732 138.38 12.7587C138.452 12.8327 138.493 12.9339 138.493 13.0526V13.0565C138.493 13.2803 138.359 13.4145 138.17 13.469L138.537 13.9846H138.254L137.92 13.5098H137.621V13.9846H137.383V12.6226Z" fill="#333E48"></path><path fill-rule="evenodd" clip-rule="evenodd" d="M134.261 12.1522L132.221 17.1932L130.194 12.1522H128.436L131.339 19.3735L129.823 23.1199H131.582L136.02 12.1522H134.261Z" fill="#333E48"></path><path fill-rule="evenodd" clip-rule="evenodd" d="M112.712 14.8405V19.5446H111.023V15.3443C111.023 14.1963 110.45 13.5385 109.445 13.5385C108.468 13.5385 107.784 14.2244 107.784 15.3723V19.5446H106.095V12.1523H107.784V12.9145C108.378 12.3422 108.943 11.9983 110.087 11.9983C111.749 11.9983 112.712 13.1181 112.712 14.8405Z" fill="#333E48"></path><path fill-rule="evenodd" clip-rule="evenodd" d="M29.9823 17.6357C29.7614 17.6357 29.5602 17.5505 29.4086 17.4148C29.4601 16.969 29.4948 16.5179 29.5002 16.0596C29.6386 15.9669 29.8044 15.9105 29.9823 15.9105C30.4549 15.9105 30.8418 16.298 30.8418 16.7749C30.8418 17.2537 30.4549 17.6357 29.9823 17.6357ZM11.0234 17.6357C10.5507 17.6357 10.1639 17.2537 10.1639 16.7749C10.1639 16.298 10.5507 15.9105 11.0234 15.9105C11.2012 15.9105 11.3671 15.9669 11.5054 16.0596C11.5109 16.5179 11.5456 16.969 11.5971 17.4148C11.4455 17.5505 11.2443 17.6357 11.0234 17.6357ZM29.9262 13.8504C29.6843 13.8504 29.4517 13.8831 29.2289 13.9375C28.3725 10.5397 25.5895 7.91042 22.1132 7.28859C21.9583 7.26046 21.818 7.23985 21.6603 7.21995C21.6863 6.36873 21.726 5.38483 22.9746 4.49936L22.7771 4C22.7771 4 20.3439 4.7584 20.0619 6.8467C19.9406 6.27845 18.8058 5.56761 18.2441 5.4327L17.9647 5.88459C17.9647 5.88459 18.7093 6.25824 18.8909 7.28891C15.4153 7.91129 12.6331 10.5403 11.7767 13.9375C11.554 13.8831 11.3214 13.8504 11.0795 13.8504C9.47295 13.8504 8.16504 15.1591 8.16504 16.7753C8.16504 18.3878 9.47295 19.6989 11.0795 19.6989C11.4559 19.6989 11.8145 19.6237 12.1444 19.4944C12.3958 20.1209 12.713 20.7152 13.0915 21.2615L15.5106 19.6257L15.4901 19.5986C14.8501 18.7738 14.4589 17.5597 14.3932 16.3512C14.3206 15.018 14.645 13.6939 15.4935 12.9156C17.2438 11.4217 19.1487 12.1025 20.3424 13.5347H20.6633C21.857 12.1025 23.7618 11.4217 25.5121 12.9156C26.3606 13.6939 26.6851 15.018 26.6125 16.3512C26.5468 17.5597 26.1556 18.7738 25.5156 19.5986L25.495 19.6257L27.9143 21.2615C28.2927 20.7152 28.6099 20.1209 28.8613 19.4944C29.1912 19.6237 29.5498 19.6989 29.9262 19.6989C31.5327 19.6989 32.8406 18.3878 32.8406 16.7753C32.8406 15.1591 31.5327 13.8504 29.9262 13.8504Z" fill="#333E48"></path></svg>
