<svg width="28" height="28" viewBox="0 0 28 28" fill="none" xmlns="http://www.w3.org/2000/svg" class="widgetCloseImg-0-2-281"><path d="M0 8C0 3.58172 3.58172 0 8 0H20C24.4183 0 28 3.58172 28 8V20C28 24.4183 24.4183 28 20 28H8C3.58172 28 0 24.4183 0 20V8Z" fill="rgba(0, 0, 0, .5)"></path><path fill-rule="evenodd" clip-rule="evenodd" d="M20.0037 6.68333C20.371 6.41083 20.8922 6.4411 21.2252 6.77416C21.5583 7.10722 21.5886 7.62839 21.3161 7.99565L21.2252 8.10087L15.3271 13.9994L21.2252 19.8979C21.5916 20.2643 21.5916 20.8583 21.2252 21.2246C20.8922 21.5577 20.371 21.588 20.0037 21.3155L19.8985 21.2246L14 15.3265L8.10148 21.2246L7.99626 21.3155C7.629 21.588 7.10783 21.5577 6.77477 21.2246C6.44172 20.8916 6.41144 20.3704 6.68394 20.0031L6.77477 19.8979L12.6729 13.9994L6.77477 8.10087C6.40841 7.73451 6.40841 7.14052 6.77477 6.77416C7.10783 6.4411 7.629 6.41083 7.99626 6.68333L8.10148 6.77416L14 12.6723L19.8985 6.77416L20.0037 6.68333Z" fill="white"></path></svg>